<?xml version="1.0" encoding="utf-8" ?>
<svg xmlns="http://www.w3.org/2000/svg" xmlns:xlink="http://www.w3.org/1999/xlink" width="1022" height="1022">
	<path fill="white" transform="scale(0.998701 0.998701)" d="M0 0L1024 0L1024 1024L0 1024L0 0Z"/>
	<path fill="#0B0388" transform="scale(0.998701 0.998701)" d="M922.469 912.646C926.313 912.651 932.929 911.242 936.201 913.465C936.869 914.954 936.644 915.262 936.316 916.813C932.515 916.961 925.774 918.066 922.603 915.869C922.001 914.54 922.24 914.058 922.469 912.646Z"/>
	<path fill="#0B0388" transform="scale(0.998701 0.998701)" d="M247.421 829.966C251.815 830.581 255.58 832.023 258.419 835.594Q258.878 836.17 259.275 836.79Q259.673 837.41 260.005 838.067Q260.336 838.725 260.599 839.413Q260.861 840.101 261.052 840.812Q261.242 841.523 261.359 842.25Q261.475 842.977 261.516 843.713Q261.558 844.448 261.523 845.183Q261.489 845.919 261.379 846.647Q261.272 847.367 261.092 848.072Q260.912 848.777 260.66 849.46Q260.408 850.143 260.088 850.796Q259.767 851.45 259.382 852.067Q258.996 852.684 258.549 853.258Q258.102 853.832 257.598 854.358Q257.094 854.883 256.539 855.354Q255.984 855.825 255.384 856.236C252.269 858.381 249.348 858.718 245.673 858.686C247.201 857.807 248.781 856.941 250.232 855.941C253.437 853.731 256.101 850.059 256.773 846.187C257.528 841.843 255.54 836.751 252.063 834.024C250.719 832.97 248.744 831.977 247.793 830.554C247.664 830.361 247.545 830.162 247.421 829.966Z"/>
	<path fill="#0B0388" transform="scale(0.998701 0.998701)" d="M115.409 912.003C120.501 911.992 145.686 910.919 148.86 912.628C149.672 913.995 149.484 914.494 149.402 916.049C144.733 916.082 117.533 917.084 115.393 915.36C114.893 913.99 115.145 913.414 115.409 912.003Z"/>
	<path fill="#0B0388" transform="scale(0.998701 0.998701)" d="M176.605 912.117C187.251 911.559 267.164 911.108 269.79 912.497C270.491 913.844 270.396 914.062 270.218 915.594C262.641 916.58 179.449 916.471 177.047 915.666C176.246 914.269 176.483 913.691 176.605 912.117Z"/>
	<path fill="#2527F8" transform="scale(0.998701 0.998701)" d="M245.673 858.686C242.971 858.115 241.042 857.494 238.891 855.718Q238.277 855.209 237.72 854.639Q237.162 854.068 236.667 853.443Q236.173 852.818 235.746 852.144Q235.319 851.47 234.965 850.755Q234.612 850.041 234.334 849.293Q234.057 848.545 233.86 847.773Q233.662 847 233.546 846.211Q233.431 845.422 233.398 844.625C233.214 840.698 234.501 836.579 237.266 833.724C240.149 830.748 243.408 829.985 247.421 829.966C247.545 830.162 247.664 830.361 247.793 830.554C248.744 831.977 250.719 832.97 252.063 834.024C255.54 836.751 257.528 841.843 256.773 846.187C256.101 850.059 253.437 853.731 250.232 855.941C248.781 856.941 247.201 857.807 245.673 858.686Z"/>
	<path fill="#0B0388" transform="scale(0.998701 0.998701)" d="M244.371 579.69C244.575 579.559 244.785 579.436 244.984 579.297C245.977 578.601 246.201 577.566 246.651 576.507C247.013 575.653 246.856 575.968 247.673 575.242C247.758 575.914 247.927 576.215 247.612 576.829C246.896 578.226 246.736 578.986 246.802 580.548Q245.457 584.158 244.225 587.809C241.557 593.203 239.79 599.275 237.635 604.909L224.224 639.671C221.287 647.373 218.626 655.443 215.036 662.865C175.214 647.163 134.833 632.889 94.9047 617.447C97.2009 611.488 99.1468 604.324 102.241 598.807C103.427 598.318 104.658 597.142 105.697 596.352C103.392 602.835 100.692 609.203 98.5135 615.721C117.462 623.393 136.712 630.303 155.809 637.592C174.995 644.914 194.219 652.691 213.689 659.204C215.563 654.589 233.413 609.028 233.445 607.779C233.452 607.503 233.256 607.259 233.162 607C232.067 606.408 230.973 605.849 229.847 605.317C231.112 605.223 232.362 605.448 233.614 605.61C232.701 605.159 232.034 604.778 231.365 604.011C231.177 603.796 230.995 603.575 230.81 603.357C231.897 603.749 232.94 604.058 234.068 604.308C236.233 603.282 242.813 583.376 244.371 579.69Z"/>
	<path fill="#030ECA" transform="scale(0.998701 0.998701)" d="M389.273 880.063L390.401 880.103C391.923 889.686 391.914 899.523 392.535 909.192C386.454 909.152 374.308 908.121 368.934 909.586C368.177 905.71 367.982 885.478 369.147 882.299C369.689 880.821 370.194 880.755 371.526 880.095L389.273 880.063Z"/>
	<path fill="#0B0388" transform="scale(0.998701 0.998701)" d="M81.473 813.795C85.5782 820.961 90.7524 827.542 95.6693 834.161Q105.675 847.521 115.48 861.03L137.971 892.336C141.454 897.119 144.721 902.299 148.757 906.636C147.639 908.39 146.437 910.043 145.176 911.697C136.382 901.302 128.649 889.687 120.69 878.642Q98.4134 847.314 75.5087 816.443C77.4457 815.472 79.4861 814.662 81.473 813.795Z"/>
	<path fill="#2527F8" transform="scale(0.998701 0.998701)" d="M756.397 210.206C760.454 213.375 763.93 216.986 767.236 220.922L778.088 210.322C780.936 213.117 783.809 215.846 786.222 219.04L776.29 229.114L786.521 239.678C783.838 242.489 781.092 245.262 778.498 248.155C774.8 244.508 771.132 240.867 767.179 237.492C764.269 240.403 760.371 243.55 758.056 246.882L756.978 247.649C753.805 247.273 749.916 242.301 747.356 240.202C751.123 236.707 754.953 233.244 758.581 229.605C755.095 226.178 751.606 222.765 748.281 219.178C750.849 216.056 753.414 212.948 756.397 210.206Z"/>
	<path fill="#0B0388" transform="scale(0.998701 0.998701)" d="M434.483 130.579C438.225 130.394 441.541 130.78 444.93 132.491Q445.721 132.896 446.468 133.378Q447.214 133.86 447.909 134.414Q448.603 134.969 449.239 135.59Q449.874 136.211 450.444 136.892Q451.015 137.574 451.514 138.309Q452.013 139.044 452.436 139.826Q452.859 140.607 453.202 141.427Q453.544 142.247 453.803 143.097Q453.932 143.517 454.038 143.943Q454.145 144.369 454.229 144.8Q454.313 145.231 454.375 145.665Q454.437 146.1 454.476 146.538Q454.515 146.975 454.532 147.414Q454.548 147.853 454.542 148.292Q454.535 148.731 454.506 149.169Q454.477 149.607 454.425 150.043Q454.373 150.479 454.298 150.912Q454.224 151.344 454.127 151.773Q454.03 152.201 453.91 152.624Q453.791 153.046 453.65 153.462Q453.51 153.878 453.347 154.286Q453.185 154.694 453.002 155.093Q452.818 155.492 452.615 155.881Q452.411 156.27 452.187 156.648C449.298 161.579 445.159 163.639 439.904 165.136C436.155 165.674 432.141 165.218 428.763 163.447C424.567 161.247 421.574 157.23 420.33 152.691Q420.093 151.852 419.942 150.994Q419.791 150.136 419.727 149.267Q419.663 148.398 419.686 147.527Q419.709 146.656 419.82 145.792Q419.931 144.928 420.128 144.079Q420.326 143.23 420.607 142.406Q420.888 141.581 421.251 140.789Q421.614 139.997 422.055 139.245C424.887 134.409 429.194 131.942 434.483 130.579Z"/>
	<path fill="#FFFAFA" transform="scale(0.998701 0.998701)" d="M433.513 134.111C436.581 133.829 439.268 133.695 442.183 134.887Q442.844 135.155 443.476 135.487Q444.107 135.819 444.702 136.212Q445.297 136.605 445.851 137.055Q446.404 137.506 446.91 138.009Q447.415 138.512 447.869 139.062Q448.322 139.613 448.718 140.206Q449.115 140.799 449.45 141.429Q449.786 142.058 450.057 142.718Q450.335 143.38 450.543 144.067Q450.75 144.754 450.884 145.459Q451.019 146.164 451.079 146.879Q451.139 147.594 451.125 148.311Q451.11 149.029 451.02 149.741Q450.931 150.453 450.767 151.152Q450.604 151.851 450.369 152.528Q450.133 153.206 449.828 153.856C447.838 157.99 444.38 159.997 440.222 161.484C437.452 162.014 434.944 162.073 432.242 161.136Q431.622 160.919 431.027 160.641Q430.431 160.364 429.866 160.029Q429.301 159.694 428.772 159.304Q428.243 158.915 427.755 158.475Q427.267 158.036 426.824 157.55Q426.382 157.064 425.99 156.537Q425.598 156.01 425.26 155.447Q424.922 154.884 424.641 154.29C422.9 150.683 422.665 146.56 424.122 142.814C425.914 138.208 429.182 135.978 433.513 134.111Z"/>
	<path fill="#FE8B7B" transform="scale(0.998701 0.998701)" d="M370.868 853.827L386.63 853.839L407.773 853.968C408.419 859.31 408.688 867.866 409.908 872.744C407.833 875.216 405.808 877.783 403.577 880.112Q396.989 880.194 390.401 880.103L389.273 880.063L371.526 880.095Q371.663 866.949 370.868 853.827Z"/>
	<path fill="#F2534C" transform="scale(0.998701 0.998701)" d="M370.868 853.827L386.63 853.839C387.242 862.188 387.065 872.041 389.273 880.063L371.526 880.095Q371.663 866.949 370.868 853.827Z"/>
	<path fill="#0B0388" transform="scale(0.998701 0.998701)" d="M198.178 373.292C195.899 374.059 193.369 374.597 190.97 374.784C184.587 375.284 178.443 373.276 173.691 368.955Q173.257 368.564 172.843 368.151Q172.43 367.739 172.038 367.305Q171.646 366.872 171.277 366.419Q170.909 365.966 170.564 365.494Q170.219 365.023 169.898 364.534Q169.578 364.045 169.284 363.541Q168.989 363.036 168.721 362.517Q168.453 361.998 168.212 361.466Q167.971 360.934 167.758 360.39Q167.544 359.846 167.359 359.292Q167.174 358.738 167.018 358.175Q166.862 357.612 166.735 357.041Q166.609 356.471 166.511 355.895Q166.414 355.319 166.347 354.739Q166.279 354.158 166.242 353.575Q166.204 352.992 166.197 352.408C166.067 346.154 168.379 340.15 172.866 335.759C177.32 331.401 183.817 328.933 190.042 329.105C197.479 329.311 203.663 333.298 208.542 338.602C212.158 344.756 213.767 351.051 211.854 358.133Q211.712 358.669 211.543 359.196Q211.374 359.724 211.179 360.243Q210.983 360.762 210.763 361.27Q210.542 361.778 210.296 362.275Q210.05 362.771 209.78 363.255Q209.51 363.739 209.215 364.209Q208.921 364.678 208.604 365.133Q208.287 365.587 207.947 366.025Q207.608 366.463 207.247 366.884Q206.886 367.304 206.505 367.706Q206.123 368.108 205.722 368.491Q205.321 368.873 204.901 369.235Q204.482 369.597 204.044 369.938Q203.607 370.278 203.154 370.597Q202.7 370.915 202.231 371.21Q201.762 371.505 201.279 371.777C200.279 372.344 199.225 372.822 198.178 373.292Z"/>
	<path fill="#FFFAFA" transform="scale(0.998701 0.998701)" d="M206.369 341.419C209.265 346.262 210.345 351.421 208.824 356.958C207.741 360.899 205.426 364.538 202.125 366.984C201.468 366.208 201.289 366.215 201.176 365.131C200.783 361.368 204.139 344.317 206.369 341.419Z"/>
	<path fill="white" transform="scale(0.998701 0.998701)" d="M202.125 366.984C201.985 367.144 201.863 367.322 201.705 367.463C198.376 370.45 191.912 371.965 187.55 371.544C182.49 371.055 177.174 368.065 173.983 364.171Q173.672 363.787 173.38 363.388Q173.088 362.99 172.817 362.576Q172.546 362.163 172.296 361.737Q172.045 361.311 171.817 360.873Q171.588 360.435 171.382 359.986Q171.176 359.536 170.993 359.078Q170.81 358.619 170.65 358.151Q170.49 357.684 170.353 357.209Q170.217 356.734 170.105 356.252Q169.992 355.771 169.904 355.285Q169.816 354.799 169.753 354.309Q169.689 353.818 169.651 353.326Q169.612 352.833 169.598 352.339Q169.584 351.845 169.595 351.351Q169.606 350.857 169.642 350.364Q169.678 349.871 169.738 349.381Q169.792 348.897 169.87 348.416Q169.949 347.935 170.053 347.458Q170.157 346.982 170.285 346.512Q170.413 346.042 170.566 345.579Q170.719 345.116 170.895 344.662Q171.072 344.208 171.272 343.763Q171.471 343.319 171.694 342.885Q171.917 342.452 172.162 342.03Q172.407 341.609 172.674 341.201Q172.94 340.793 173.228 340.4Q173.515 340.006 173.823 339.628Q174.131 339.25 174.457 338.888Q174.784 338.527 175.13 338.183Q175.475 337.839 175.838 337.513Q176.2 337.188 176.579 336.881Q176.958 336.575 177.353 336.289Q177.755 335.998 178.172 335.727Q178.589 335.457 179.019 335.208Q179.45 334.959 179.892 334.733Q180.334 334.506 180.788 334.303Q181.241 334.1 181.704 333.92Q182.168 333.74 182.639 333.584Q183.111 333.428 183.59 333.296Q184.07 333.165 184.555 333.058Q185.04 332.951 185.53 332.869Q186.021 332.787 186.514 332.731Q187.008 332.674 187.504 332.643Q188 332.612 188.497 332.606Q188.994 332.6 189.49 332.62Q189.987 332.64 190.482 332.685Q190.977 332.73 191.468 332.8Q191.96 332.87 192.448 332.966C197.906 334.007 203.201 336.777 206.369 341.419C204.139 344.317 200.783 361.368 201.176 365.131C201.289 366.215 201.468 366.208 202.125 366.984Z"/>
	<path fill="#2527F8" transform="scale(0.998701 0.998701)" d="M134.952 787.95Q144.133 800.644 153.032 813.538C151.443 815.216 149.884 816.943 148.215 818.542C146.589 819.992 143.708 821.144 142.436 822.646C144.442 826.87 145.252 832.233 146.407 836.811C149.693 849.833 154.955 876.462 160.94 887.234C157.323 893.959 153.04 900.322 148.757 906.636C144.721 902.299 141.454 897.119 137.971 892.336L115.48 861.03Q105.675 847.521 95.6693 834.161C90.7524 827.542 85.5782 820.961 81.473 813.795Q100.57 804.607 120.244 796.731C123.466 795.711 126.119 792.174 129.409 790.743C131.134 789.599 133.075 788.812 134.952 787.95Z"/>
	<path fill="#F4BFA4" transform="scale(0.998701 0.998701)" d="M134.952 787.95Q144.133 800.644 153.032 813.538C151.443 815.216 149.884 816.943 148.215 818.542C146.589 819.992 143.708 821.144 142.436 822.646C138.679 823.868 134.251 824.069 130.44 822.978C126.212 821.768 122.886 818.954 120.868 815.063C117.741 809.035 118.241 802.952 120.244 796.731C123.466 795.711 126.119 792.174 129.409 790.743C131.134 789.599 133.075 788.812 134.952 787.95Z"/>
	<path fill="#F2534C" transform="scale(0.998701 0.998701)" d="M134.952 787.95Q144.133 800.644 153.032 813.538C151.443 815.216 149.884 816.943 148.215 818.542C143.688 808.64 135.287 799.955 129.409 790.743C131.134 789.599 133.075 788.812 134.952 787.95Z"/>
	<path fill="#2527F8" transform="scale(0.998701 0.998701)" d="M833.067 750.964C827.302 742.207 823.632 732.336 825.988 721.732C828.707 709.496 839.911 701.654 849.977 695.544C881.293 676.534 913.306 673.704 948.674 679.251C943.05 688.062 937.164 696.589 930.252 704.452C915.674 721.038 898.86 735.137 881.859 749.138C875.511 754.366 868.898 760.477 861.683 764.469C859.819 765.5 857.966 766.087 855.926 766.64C846.612 764.566 841.751 759.952 835.844 752.844L836.185 751.702L834.446 749.885L833.067 750.964Z"/>
	<path fill="#2A1D85" transform="scale(0.998701 0.998701)" d="M856.926 726.561C859.885 723.12 864.141 720.175 867.781 717.462C883.047 706.078 899.294 697.461 916.763 689.97C921.082 688.118 925.625 685.787 930.255 684.895L930.807 685.071C925.104 689.426 914.195 693.004 907.309 696.229C901.327 699.031 895.569 702.363 889.806 705.585C892.864 712.566 896.603 719.767 898.64 727.104C893.499 721.027 890.744 713.618 887.901 706.284C876.552 713.824 865.995 722.142 855.57 730.906C848.86 737.581 841.805 744.043 836.185 751.702L834.446 749.885C840.61 741.949 848.597 732.21 856.926 726.561Z"/>
	<path fill="#2527F8" transform="scale(0.998701 0.998701)" d="M587.693 173.818C582.125 161.46 581.04 147.878 585.887 135.058C590.268 123.474 600.18 114.152 611.362 109.141Q612.434 108.654 613.529 108.221Q614.624 107.788 615.739 107.41Q616.854 107.032 617.987 106.711Q619.119 106.389 620.267 106.124Q621.414 105.858 622.573 105.651Q623.732 105.443 624.9 105.293Q626.067 105.143 627.241 105.052Q628.415 104.961 629.592 104.928Q630.769 104.895 631.946 104.92Q633.123 104.946 634.298 105.03Q635.472 105.115 636.641 105.257Q637.81 105.4 638.97 105.601Q640.13 105.801 641.279 106.059Q642.428 106.318 643.562 106.633Q644.697 106.948 645.814 107.319Q646.931 107.69 648.029 108.116C660.164 112.769 670.487 122.363 675.637 134.326C680.561 145.767 681.136 158.442 676.471 170.065C673.885 176.511 669.872 182.185 665.099 187.196C662.328 189.768 659.38 192.069 656.109 193.978Q655.087 194.579 654.036 195.13Q652.986 195.681 651.91 196.18Q650.834 196.678 649.735 197.124Q648.636 197.57 647.516 197.961Q646.397 198.353 645.259 198.689Q644.122 199.025 642.97 199.306Q641.817 199.586 640.653 199.81Q639.488 200.034 638.314 200.201Q637.14 200.367 635.959 200.476Q634.778 200.586 633.593 200.637Q632.408 200.688 631.222 200.682Q630.036 200.675 628.852 200.611Q627.667 200.547 626.488 200.425Q625.308 200.302 624.136 200.123Q622.964 199.943 621.801 199.707Q620.639 199.47 619.49 199.177C604.682 195.269 595.289 186.781 587.693 173.818Z"/>
	<path fill="white" transform="scale(0.998701 0.998701)" d="M651.087 132.92C653.195 133.883 654.959 136.542 656.39 138.322C645.837 148.958 634.741 159.341 623.946 169.753L609.735 154.548C607.608 152.333 605.393 150.322 603.066 148.32C604.593 146.359 606.27 144.629 608.017 142.871C613.843 146.925 618.758 152.984 624.222 157.638C633.967 150.457 641.407 140.355 651.087 132.92Z"/>
	<path fill="#745FFB" transform="scale(0.998701 0.998701)" d="M102.241 598.807C104.442 591.363 126.502 532.521 128.324 530.37C128.577 530.072 129.009 529.993 129.351 529.804L129.415 531.195C130.172 531.644 130.352 531.57 130.689 532.425C128.233 536.972 119.105 558.231 119.405 562.485L120.397 563.1Q132.438 567.581 144.595 571.739C148.888 573.232 154.459 574.567 158.312 576.852C176.891 583.178 195.256 590.268 213.711 596.96C218.959 598.814 226.12 600.472 230.81 603.357C230.995 603.575 231.177 603.796 231.365 604.011C232.034 604.778 232.701 605.159 233.614 605.61C232.362 605.448 231.112 605.223 229.847 605.317C230.973 605.849 232.067 606.408 233.162 607C233.256 607.259 233.452 607.503 233.445 607.779C233.413 609.028 215.563 654.589 213.689 659.204C194.219 652.691 174.995 644.914 155.809 637.592C136.712 630.303 117.462 623.393 98.5135 615.721C100.692 609.203 103.392 602.835 105.697 596.352C104.658 597.142 103.427 598.318 102.241 598.807Z"/>
	<path fill="#2A1D85" transform="scale(0.998701 0.998701)" d="M102.241 598.807C104.442 591.363 126.502 532.521 128.324 530.37C128.577 530.072 129.009 529.993 129.351 529.804L129.415 531.195C130.172 531.644 130.352 531.57 130.689 532.425C128.233 536.972 119.105 558.231 119.405 562.485L120.397 563.1Q132.438 567.581 144.595 571.739C148.888 573.232 154.459 574.567 158.312 576.852C176.891 583.178 195.256 590.268 213.711 596.96C218.959 598.814 226.12 600.472 230.81 603.357C230.995 603.575 231.177 603.796 231.365 604.011C232.034 604.778 232.701 605.159 233.614 605.61C232.362 605.448 231.112 605.223 229.847 605.317C224.629 604.411 216.222 600.407 210.791 598.486L178.996 586.881C172.118 584.383 165.093 582.165 158.353 579.317C153.13 578.768 126.129 567.767 118.976 565.16L118.059 565.132C114.691 570.124 108.646 589.221 105.697 596.352C104.658 597.142 103.427 598.318 102.241 598.807Z"/>
	<path fill="#2527F8" transform="scale(0.998701 0.998701)" d="M848.074 515.873C856.631 508.483 866.315 500.533 876.291 495.189C884.135 544.751 882.339 588.484 864.102 635.75C859.575 647.484 854.313 659.853 846.94 670.097C840.2 679.462 830.408 685.718 818.972 687.573C813.321 688.49 806.421 688.722 800.873 687.136L800.631 686.085C800.012 686.743 799.535 687.086 798.721 687.477L797.922 687.12L797.414 685.346L796.602 686.932C791.054 685.45 786.043 682.088 782.288 677.775C773.977 668.23 771.892 654.022 772.734 641.797C774.615 614.51 789.298 588.534 804.065 566.215C809.239 558.394 814.409 550.709 820.453 543.519C828.863 533.514 838.246 524.462 848.074 515.873Z"/>
	<path fill="#2A1D85" transform="scale(0.998701 0.998701)" d="M829.912 593.911Q840.073 570.592 850.904 547.577C854.382 540.355 857.629 532.517 862.594 526.197C861.046 532.478 857.708 538.497 855.013 544.364C850.082 555.095 844.978 565.759 840.157 576.54C837.676 582.088 833.805 593.534 830.777 598.047C836.434 599.653 857.854 587.005 862.083 590.714L861.973 591.519C860.572 592.403 832.645 601.295 829.524 602.198Q826.489 608.766 823.755 615.465C820.079 626.471 815.982 637.335 812.343 648.353C808.215 660.852 804.575 673.525 800.631 686.085C800.012 686.743 799.535 687.086 798.721 687.477L797.922 687.12L797.414 685.346C800.275 678.982 801.973 671.495 804.014 664.801C808.992 648.472 813.816 630.972 821.083 615.502C823.448 608.179 826.868 600.975 829.912 593.911Z"/>
	<path fill="#2527F8" transform="scale(0.998701 0.998701)" d="M253.452 158.819Q255.073 158.009 256.731 157.28Q258.39 156.551 260.082 155.904Q261.775 155.258 263.497 154.695Q265.219 154.132 266.967 153.655Q268.714 153.177 270.483 152.786Q272.252 152.395 274.038 152.092Q275.825 151.788 277.624 151.572Q279.422 151.357 281.23 151.23Q283.037 151.103 284.848 151.065Q286.66 151.028 288.471 151.079Q290.282 151.13 292.088 151.27Q293.894 151.41 295.692 151.639Q297.489 151.868 299.273 152.184Q301.057 152.501 302.823 152.905Q304.589 153.309 306.333 153.799Q308.077 154.29 309.795 154.865C327.519 160.949 343.054 174.448 351.241 191.319C354.981 199.027 357.186 207.349 358.311 215.825C359.034 228.925 357.705 241.428 351.753 253.278C354.012 256.724 357.31 259.767 360.135 262.781C367.454 270.587 375.236 278.065 382.325 286.067C365.077 284.7 347.735 284.052 330.462 282.939C325.025 283.011 319.225 281.592 313.834 282.569C308.547 283.527 303.728 286.374 298.293 287.238C274.979 290.941 258.042 285.681 239.246 271.994C232.613 266.541 226.802 259.395 222.886 251.752C214.631 235.638 212.595 216.213 218.21 198.934C224.004 181.106 236.799 167.245 253.452 158.819Z"/>
	<path fill="#0B0388" transform="scale(0.998701 0.998701)" d="M253.452 158.819Q255.073 158.009 256.731 157.28Q258.39 156.551 260.082 155.904Q261.775 155.258 263.497 154.695Q265.219 154.132 266.967 153.655Q268.714 153.177 270.483 152.786Q272.252 152.395 274.038 152.092Q275.825 151.788 277.624 151.572Q279.422 151.357 281.23 151.23Q283.037 151.103 284.848 151.065Q286.66 151.028 288.471 151.079Q290.282 151.13 292.088 151.27Q293.894 151.41 295.692 151.639Q297.489 151.868 299.273 152.184Q301.057 152.501 302.823 152.905Q304.589 153.309 306.333 153.799Q308.077 154.29 309.795 154.865C327.519 160.949 343.054 174.448 351.241 191.319C354.981 199.027 357.186 207.349 358.311 215.825C359.034 228.925 357.705 241.428 351.753 253.278C354.012 256.724 357.31 259.767 360.135 262.781C367.454 270.587 375.236 278.065 382.325 286.067C365.077 284.7 347.735 284.052 330.462 282.939C341.684 280.296 357.309 280.039 368.973 279.901C360.768 271.598 353.195 262.307 346.349 252.86C349.75 241.949 352.189 232.03 351.366 220.499C349.944 200.562 341.362 183.195 326.148 170.229C311.59 157.822 290.878 152.537 271.996 155.108C266.171 155.901 260.172 158.401 254.414 158.771C254.094 158.791 253.773 158.803 253.452 158.819Z"/>
	<path fill="white" transform="scale(0.998701 0.998701)" d="M280.955 185.158Q281.744 185.069 282.537 185.016Q283.329 184.963 284.123 184.946Q284.917 184.928 285.711 184.946Q286.505 184.964 287.297 185.018Q288.09 185.072 288.879 185.161Q289.668 185.25 290.453 185.374Q291.237 185.498 292.015 185.657Q292.793 185.817 293.563 186.011Q294.333 186.205 295.094 186.433Q295.855 186.661 296.605 186.924Q297.354 187.186 298.091 187.481Q298.829 187.777 299.552 188.105Q300.275 188.433 300.983 188.793Q301.691 189.154 302.382 189.545Q303.072 189.937 303.745 190.359Q304.418 190.781 305.071 191.233Q305.734 191.686 306.374 192.171Q307.015 192.656 307.63 193.173Q308.245 193.689 308.835 194.235Q309.424 194.781 309.986 195.355Q310.547 195.929 311.08 196.531Q311.612 197.132 312.115 197.759Q312.617 198.386 313.088 199.037Q313.558 199.687 313.996 200.361Q314.434 201.034 314.839 201.728Q315.243 202.422 315.613 203.135Q315.982 203.849 316.316 204.579Q316.65 205.31 316.948 206.056Q317.245 206.802 317.506 207.562Q317.766 208.322 317.989 209.093Q318.211 209.865 318.395 210.647Q318.58 211.429 318.725 212.219C320.402 221.588 317.697 229.199 312.361 236.812C314.535 239.551 317.06 242.336 318.215 245.678C319.078 248.176 319.213 250.946 317.905 253.319C316.847 255.238 314.963 256.31 312.873 256.785C306.795 258.165 301.633 254.603 296.831 251.452C295.627 250.735 290.262 253.194 288.471 253.504C280.097 254.953 270.891 252.959 263.958 247.989C256.444 242.602 250.894 234.341 249.373 225.165C247.864 216.064 250.507 207.171 255.857 199.756C261.907 191.369 270.912 186.832 280.955 185.158Z"/>
	<path fill="#2527F8" transform="scale(0.998701 0.998701)" d="M275.104 195.622C277.798 195.366 280.451 195.236 283.077 196.026C288.103 197.538 286.807 201.401 288.505 205.217C291.366 211.645 300.098 215.15 303.116 221.404C303.957 223.149 303.956 225.559 303.254 227.329C302.223 227.788 302.2 227.823 301.195 227.386C296.229 225.222 289.386 217.816 283.155 216.172C282.1 215.893 282.542 215.873 281.573 216.411L281.667 218.388C282.707 225.551 284.695 232.525 285.414 239.751C280.318 234.031 266.888 222.433 263.978 216.618C262.303 213.271 262.275 209.314 263.639 205.846C265.589 200.892 270.371 197.596 275.104 195.622Z"/>
	<path fill="#2A1D85" transform="scale(0.998701 0.998701)" d="M248.837 590.819C250.803 581.456 251.432 571.393 252.766 561.885C256.472 535.481 263.129 502.645 275.875 479.262C276.083 479.471 276.296 479.676 276.499 479.89C278.27 481.757 279.334 484.924 280.525 487.211C282.468 490.941 284.732 494.6 287.479 497.796C302.274 515.017 337.102 527.637 359.453 528.91C372.452 529.65 381.432 527.539 392.504 520.845C392.282 534.641 393.948 548.754 394.85 562.53L398.116 620.28L404.966 728.812C406.201 749.432 407.018 770.102 408.498 790.705C408.819 798.681 413.034 851.183 412.132 853.627C410.617 854.075 409.326 854.026 407.773 853.968L386.63 853.839L370.868 853.827C369.745 853.827 368.605 853.65 367.488 853.535Q357.967 784.525 347.7 715.621C343.086 714.011 335.303 706.975 330.669 703.896C324.061 699.505 308.808 691.967 304.153 687.122C301.435 701.131 299.65 715.983 291.5 728.085C288.56 732.451 284.644 736.611 280.703 740.095C268.831 750.591 254.904 759.952 242.355 769.746L184.166 814.277C177.556 819.312 171.224 824.852 164.539 829.756C160.597 824.422 156.97 818.869 153.032 813.538Q144.133 800.644 134.952 787.95C133.704 785.426 132.639 783.325 130.809 781.145Q170.848 751.18 210.171 720.282C217.867 714.259 226.304 709.068 233.766 702.787C235.437 693.833 236.484 684.715 237.764 675.695Q241.426 651.215 244.375 626.639C245.83 614.875 248.286 602.632 248.837 590.819Z"/>
	<path fill="#0B0388" transform="scale(0.998701 0.998701)" d="M325.815 574.45C325.44 573.037 325.11 571.617 325.826 570.266C327.883 566.381 348.039 561.321 353.046 560.003C354.72 559.562 356.523 559.105 358.246 559.447C358.049 560.765 357.077 561.377 356.037 562.182C351.147 565.968 345.214 568.391 340.161 571.974C341.353 584.291 343.837 596.51 345.859 608.713L356.852 674.059C360.343 694.824 384.058 846.391 388.132 852.403C392.559 854.066 404.348 852.253 409.976 853.015L410.817 853.122C410.985 853.145 411.152 853.173 411.32 853.198C400.526 853.848 389.445 853.277 378.614 853.332C374.951 853.35 371.118 853.138 367.488 853.535Q357.967 784.525 347.7 715.621C343.086 714.011 335.303 706.975 330.669 703.896C324.061 699.505 308.808 691.967 304.153 687.122L320.133 603.681C321.239 597.834 323.815 578.79 325.815 574.45Z"/>
	<path fill="#FFFAFA" transform="scale(0.998701 0.998701)" d="M304.153 687.122L320.133 603.681C321.239 597.834 323.815 578.79 325.815 574.45L340.891 671.147L345.43 700.192C346.224 705.277 347.299 710.497 347.7 715.621C343.086 714.011 335.303 706.975 330.669 703.896C324.061 699.505 308.808 691.967 304.153 687.122Z"/>
	<path fill="#0B0388" transform="scale(0.998701 0.998701)" d="M750.119 659.575C748.094 650.774 731.481 626.672 725.952 618.775C723.491 615.26 719.354 610.844 717.978 606.881L718.387 606.299C725.997 609.509 747.587 649.317 752.654 657.888C771.661 693.341 778.374 733.11 784.521 772.404C786.057 743.79 789.134 714.665 796.602 686.932L797.414 685.346L797.922 687.12L798.721 687.477C799.535 687.086 800.012 686.743 800.631 686.085L800.873 687.136C795.553 700.66 785.21 787.973 788.32 800.434C789.839 800.616 790.754 800.59 792.237 800.218C792.791 799.468 795.438 779.399 796.231 775.925C800.611 756.717 806.82 738.403 817.533 721.704C819.144 719.194 822.005 713.509 824.774 712.423L825.582 712.835C825.985 716.523 814.859 732.807 812.595 738.33C804.608 757.82 798.156 779.338 797.21 800.449L803.711 800.463C812.987 780.232 819.197 768.842 833.067 750.964L834.446 749.885L836.185 751.702L835.844 752.844C823.982 767.281 814.968 783.215 807.78 800.421L842.411 800.444C848.433 800.431 854.856 799.967 860.837 800.64C862.237 800.797 863.99 800.989 865.08 801.984C868.708 805.293 867.96 815.479 867.562 819.938C867.37 822.101 866.792 825.428 864.919 826.815C862.72 828.442 857.217 827.966 854.523 827.987C854.338 854.245 855.971 876.566 835.589 896.508C827.131 904.784 816.658 909.952 805.242 912.814L805.911 912.852C814.177 913.263 822.639 912.639 830.931 912.607L885.143 912.603C892.581 912.612 900.594 911.955 907.953 912.557C909.297 912.667 910.3 912.875 911.444 913.634C911.835 914.767 911.795 914.779 911.391 915.915C910.759 916.348 910.35 916.499 909.578 916.532C895.842 917.123 881.81 916.508 868.047 916.507L796.25 916.685L617.954 916.404L525.258 916.606C509.076 916.629 492.822 916.974 476.646 916.648C470.291 916.52 463.956 915.79 457.595 915.666C435.833 915.243 414.004 915.507 392.236 915.532C382.927 915.543 372.986 916.283 363.742 915.495C348.904 916.382 333.716 915.744 318.84 915.77C313.667 915.779 307.472 916.782 302.464 915.864C301.151 915.624 300.627 915.371 299.843 914.313C300.101 913.207 300.199 913.083 301.002 912.273C304.402 911.31 357.543 911.648 363.805 911.999L367.329 911.928C368.607 911.14 368.496 911.047 368.934 909.586C374.308 908.121 386.454 909.152 392.535 909.192C391.914 899.523 391.923 889.686 390.401 880.103Q396.989 880.194 403.577 880.112C405.808 877.783 407.833 875.216 409.908 872.744C408.688 867.866 408.419 859.31 407.773 853.968C409.326 854.026 410.617 854.075 412.132 853.627C413.034 851.183 408.819 798.681 408.498 790.705C438.045 809.008 466.87 822.656 500.946 830.547C515.894 834.008 531.324 836.203 546.445 838.86C551.339 828.319 560.609 803.17 566.868 795.432Q567.67 794.452 568.579 793.571Q569.489 792.69 570.493 791.918Q571.498 791.147 572.584 790.497Q573.67 789.846 574.824 789.324Q576.805 788.406 578.918 787.857Q581.031 787.307 583.208 787.143C593.468 786.301 604.283 787.111 614.626 787.128C628.152 787.149 641.921 786.521 655.411 787.191C657.753 787.308 660.597 787.42 662.766 788.342C667.167 790.211 670.278 794.163 671.977 798.548C676.115 809.229 665.732 825.335 661.675 835.098C661.738 835.162 661.785 835.247 661.864 835.29C665.724 837.357 708.224 824.656 713.802 822.892C713.809 820.899 713.932 819.145 714.396 817.203C714.637 813.38 713.172 805.831 715.925 802.858C717.345 801.326 720.428 800.89 722.389 800.698C727.748 800.172 733.533 800.63 738.934 800.692Q754.953 800.964 770.971 800.639C764.97 787.386 753.731 772.693 744.693 761.251L743.791 759.425L744.811 758.828C745.53 757.636 745.41 757.489 745.255 756.081L747.019 757.644C757.633 770.903 767.79 785.062 774.889 800.537L782.554 800.543C779.94 764.162 774.26 726.291 762.758 691.582C759.139 680.66 754.304 670.274 750.119 659.575Z"/>
	<path fill="white" transform="scale(0.998701 0.998701)" d="M470.158 900.169L470.72 897.798C475.593 896.455 515.536 897.204 523.243 897.435C525.544 904.061 528.654 908.409 533.989 912.925L490.906 913.048C484.3 913.055 476.886 913.803 470.39 912.804C469.843 911.616 470.171 910.412 470.342 909.165C470.443 906.124 470.505 903.2 470.158 900.169Z"/>
	<path fill="#2527F8" transform="scale(0.998701 0.998701)" d="M409.908 872.744C415.283 873.451 420.517 875.871 425.546 877.822Q439.084 883.124 452.681 888.272C457.695 890.173 463.049 892.633 468.298 893.656C467.176 898.709 467.426 903.941 467.142 909.09C460.857 909.199 446.269 908.305 441.107 909.369C424.957 908.86 408.701 909.359 392.535 909.192C391.914 899.523 391.923 889.686 390.401 880.103Q396.989 880.194 403.577 880.112C405.808 877.783 407.833 875.216 409.908 872.744Z"/>
	<path fill="#F7B114" transform="scale(0.998701 0.998701)" d="M774.889 804.746C804.22 804.394 833.721 804.534 863.051 804.993C863.354 811.083 863.407 817.368 862.999 823.45C856.207 824.404 848.75 823.816 841.886 823.755Q824.568 823.572 807.25 823.618L718.428 823.875Q718.348 814.467 718.629 805.063C737.291 804.237 756.195 804.93 774.889 804.746Z"/>
	<path fill="white" transform="scale(0.998701 0.998701)" d="M713.802 822.892C713.809 820.899 713.932 819.145 714.396 817.203C714.38 820.336 713.918 824.411 716.425 826.778C718.892 829.109 723.551 828.468 726.661 828.42C726.529 853.133 723.797 875.727 742.809 894.834C751.839 903.909 761.903 908.719 773.779 913.074C754.77 911.466 734.971 912.499 715.867 912.503C684.887 912.51 653.872 912.174 622.897 912.563C626.564 910.348 629.568 907.975 632.05 904.437C635.686 899.255 637.957 892.795 640.379 886.972L654.903 851.295C657.063 846.017 658.971 840.098 661.675 835.098C661.738 835.162 661.785 835.247 661.864 835.29C665.724 837.357 708.224 824.656 713.802 822.892Z"/>
	<path fill="#F7B114" transform="scale(0.998701 0.998701)" d="M730.781 828.037C770.586 828.478 810.464 827.994 850.277 828.074C850.349 855.735 852.996 871.457 832.981 893.217Q831.914 894.24 830.799 895.211Q829.684 896.181 828.524 897.097Q827.364 898.014 826.161 898.873Q824.958 899.732 823.716 900.533Q822.473 901.334 821.194 902.074Q819.914 902.815 818.601 903.493Q817.287 904.171 815.943 904.785Q814.598 905.4 813.226 905.949Q811.853 906.498 810.456 906.981Q809.059 907.464 807.64 907.879Q806.222 908.294 804.785 908.641Q803.348 908.988 801.896 909.265Q800.444 909.543 798.98 909.751Q797.516 909.958 796.045 910.095Q794.573 910.233 793.096 910.299Q791.619 910.365 790.141 910.361C773.721 910.204 757.054 903.334 745.661 891.454C727.912 872.949 730.339 851.741 730.781 828.037Z"/>
	<path fill="white" transform="scale(0.998701 0.998701)" d="M408.498 790.705C438.045 809.008 466.87 822.656 500.946 830.547C515.894 834.008 531.324 836.203 546.445 838.86Q538.466 856.532 530.722 874.308C528.038 880.569 525.004 886.96 523.121 893.507C505.15 893.5 487.148 893.717 469.181 893.416L468.298 893.656C463.049 892.633 457.695 890.173 452.681 888.272Q439.084 883.124 425.546 877.822C420.517 875.871 415.283 873.451 409.908 872.744C408.688 867.866 408.419 859.31 407.773 853.968C409.326 854.026 410.617 854.075 412.132 853.627C413.034 851.183 408.819 798.681 408.498 790.705Z"/>
	<path fill="white" transform="scale(0.998701 0.998701)" d="M585.237 790.736L631.998 790.771C640.399 790.737 649.638 789.969 657.967 791.006C660.018 791.262 661.446 791.709 663.156 792.875C666.173 794.931 668.048 798.181 668.684 801.744C669.147 804.335 669.031 806.702 668.263 809.211C666.81 813.962 664.579 818.598 662.65 823.18L652.501 847.365L638.885 880.485C636.1 887.272 633.28 896.489 628.893 902.322C624.486 908.181 618.477 911.308 611.362 912.469C597.304 912.859 583.165 912.558 569.094 912.625C560.787 912.664 551.088 913.7 542.984 912.303C539.845 911.763 536.808 910.096 534.338 908.135C530.771 905.305 527.348 901.019 527.026 896.295C526.854 893.782 527.883 891.168 528.767 888.849C531.745 881.03 535.386 873.355 538.721 865.678Q548.222 843.523 558.23 821.593C561.759 813.824 564.361 803.935 569.918 797.415C574.116 792.49 579.058 791.159 585.237 790.736Z"/>
	<path fill="#FFFAFA" transform="scale(0.998701 0.998701)" d="M358.311 215.825C368.501 207.113 393.356 195.87 406.447 190.879C447.672 175.164 482.081 169.073 526.156 169.157C534.508 169.173 542.896 168.999 551.234 169.534C563.253 170.305 575.089 173.116 587.032 173.787L587.693 173.818C595.289 186.781 604.682 195.269 619.49 199.177Q620.639 199.47 621.801 199.707Q622.964 199.943 624.136 200.123Q625.308 200.302 626.488 200.425Q627.667 200.547 628.852 200.611Q630.036 200.675 631.222 200.682Q632.408 200.688 633.593 200.637Q634.778 200.586 635.959 200.476Q637.14 200.367 638.314 200.201Q639.488 200.034 640.653 199.81Q641.817 199.586 642.97 199.306Q644.122 199.025 645.259 198.689Q646.397 198.353 647.516 197.961Q648.636 197.57 649.735 197.124Q650.834 196.678 651.91 196.18Q652.986 195.681 654.036 195.13Q655.087 194.579 656.109 193.978C659.38 192.069 662.328 189.768 665.099 187.196C670.676 189.474 676.14 192.709 681.449 195.551C697.123 203.942 713.028 213.566 727.335 224.133C734.251 229.241 740.681 234.804 747.356 240.202C749.916 242.301 753.805 247.273 756.978 247.649L758.056 246.882C761.707 251.882 766.727 256.283 770.971 260.833C776.906 267.196 798.683 291.1 799.354 298.222C798.387 298.577 797.773 298.581 796.797 298.761C796.594 298.798 796.401 298.872 796.203 298.928Q809.013 298.937 821.822 298.783C827.231 298.724 833.371 298.133 838.674 299.149C841.819 299.751 844.869 301.169 847.103 303.503C848.877 305.357 849.892 307.478 850.349 309.996C851.304 315.26 850.588 321.134 850.584 326.481C850.579 332.907 851.003 339.413 850.727 345.828C850.589 349.043 850.131 351.684 848.663 354.571C851.415 359.752 852.778 366.039 854.159 371.735C862.569 406.41 862.448 445.166 856.483 480.236C854.446 492.216 849.356 503.916 848.074 515.873C838.246 524.462 828.863 533.514 820.453 543.519C814.409 550.709 809.239 558.394 804.065 566.215C789.298 588.534 774.615 614.51 772.734 641.797C771.892 654.022 773.977 668.23 782.288 677.775C786.043 682.088 791.054 685.45 796.602 686.932C789.134 714.665 786.057 743.79 784.521 772.404C778.374 733.11 771.661 693.341 752.654 657.888C747.587 649.317 725.997 609.509 718.387 606.299L717.978 606.881C719.354 610.844 723.491 615.26 725.952 618.775C731.481 626.672 748.094 650.774 750.119 659.575C754.304 670.274 759.139 680.66 762.758 691.582C774.26 726.291 779.94 764.162 782.554 800.543L774.889 800.537C767.79 785.062 757.633 770.903 747.019 757.644L745.255 756.081C745.41 757.489 745.53 757.636 744.811 758.828L743.791 759.425L744.693 761.251C753.731 772.693 764.97 787.386 770.971 800.639Q754.953 800.964 738.934 800.692C733.533 800.63 727.748 800.172 722.389 800.698C720.428 800.89 717.345 801.326 715.925 802.858C713.172 805.831 714.637 813.38 714.396 817.203C713.932 819.145 713.809 820.899 713.802 822.892C708.224 824.656 665.724 837.357 661.864 835.29C661.785 835.247 661.738 835.162 661.675 835.098C665.732 825.335 676.115 809.229 671.977 798.548C670.278 794.163 667.167 790.211 662.766 788.342C660.597 787.42 657.753 787.308 655.411 787.191C641.921 786.521 628.152 787.149 614.626 787.128C604.283 787.111 593.468 786.301 583.208 787.143Q581.031 787.307 578.918 787.857Q576.805 788.406 574.824 789.324Q573.67 789.846 572.584 790.497Q571.498 791.147 570.493 791.918Q569.489 792.69 568.579 793.571Q567.67 794.452 566.868 795.432C560.609 803.17 551.339 828.319 546.445 838.86C531.324 836.203 515.894 834.008 500.946 830.547C466.87 822.656 438.045 809.008 408.498 790.705C407.018 770.102 406.201 749.432 404.966 728.812L398.116 620.28L394.85 562.53C393.948 548.754 392.282 534.641 392.504 520.845C381.432 527.539 372.452 529.65 359.453 528.91C337.102 527.637 302.274 515.017 287.479 497.796C284.732 494.6 282.468 490.941 280.525 487.211C279.334 484.924 278.27 481.757 276.499 479.89C276.296 479.676 276.083 479.471 275.875 479.262C263.129 502.645 256.472 535.481 252.766 561.885C251.432 571.393 250.803 581.456 248.837 590.819C248.576 589.891 248.415 588.947 248.232 588.001C248.499 587.3 248.763 586.682 248.802 585.923C248.942 583.189 250.239 578.723 249.836 576.223C247.641 579.326 246.321 584.367 244.908 587.924L244.225 587.809Q245.457 584.158 246.802 580.548C246.736 578.986 246.896 578.226 247.612 576.829C247.927 576.215 247.758 575.914 247.673 575.242C246.856 575.968 247.013 575.653 246.651 576.507C246.201 577.566 245.977 578.601 244.984 579.297C244.785 579.436 244.575 579.559 244.371 579.69C242.813 583.376 236.233 603.282 234.068 604.308C232.94 604.058 231.897 603.749 230.81 603.357C226.12 600.472 218.959 598.814 213.711 596.96C195.256 590.268 176.891 583.178 158.312 576.852C154.459 574.567 148.888 573.232 144.595 571.739Q132.438 567.581 120.397 563.1L119.405 562.485C119.105 558.231 128.233 536.972 130.689 532.425C130.352 531.57 130.172 531.644 129.415 531.195L129.351 529.804C137.099 531.741 144.32 534.385 151.698 537.387C153.9 534.025 154.865 530.091 157.954 525.868C164.002 517.599 172.376 514.782 182.076 513.309C183.922 505.313 188.609 499.768 193.316 493.288C191.622 489.472 191.951 482.703 191.706 478.417C190.205 452.07 190.322 426.297 193.783 400.086C194.601 393.888 199.32 378.287 198.178 373.292C199.225 372.822 200.279 372.344 201.279 371.777Q201.762 371.505 202.231 371.21Q202.7 370.915 203.154 370.597Q203.607 370.278 204.044 369.938Q204.482 369.597 204.901 369.235Q205.321 368.873 205.722 368.491Q206.123 368.108 206.505 367.706Q206.886 367.304 207.247 366.884Q207.608 366.463 207.947 366.025Q208.287 365.587 208.604 365.133Q208.921 364.678 209.215 364.209Q209.51 363.739 209.78 363.255Q210.05 362.771 210.296 362.275Q210.542 361.778 210.763 361.27Q210.983 360.762 211.179 360.243Q211.374 359.724 211.543 359.196Q211.712 358.669 211.854 358.133C213.767 351.051 212.158 344.756 208.542 338.602C213.022 331.334 217.139 317.272 221.225 308.396Q225.555 298.875 230.415 289.613C233.459 283.867 237.012 278.104 239.246 271.994C258.042 285.681 274.979 290.941 298.293 287.238C303.728 286.374 308.547 283.527 313.834 282.569C319.225 281.592 325.025 283.011 330.462 282.939C347.735 284.052 365.077 284.7 382.325 286.067C375.236 278.065 367.454 270.587 360.135 262.781C357.31 259.767 354.012 256.724 351.753 253.278C357.705 241.428 359.034 228.925 358.311 215.825Z"/>
	<path fill="#F4BFA4" transform="scale(0.998701 0.998701)" d="M502.414 392.415C497.737 386.953 492.59 382.998 491.735 375.25C491.403 372.245 492.04 369.261 494.007 366.907C495.704 364.875 498.336 363.665 500.965 363.538C505.713 363.308 508.832 366.151 512.106 369.122C521.078 373.73 529.49 383.191 532.638 392.817C536.42 404.382 530.825 410.501 529.849 421.123Q513.609 417.125 497.327 413.299C503.089 405.143 501.849 402.245 502.365 393.198L502.414 392.415Z"/>
	<path fill="#F2534C" transform="scale(0.998701 0.998701)" d="M502.414 392.415C497.737 386.953 492.59 382.998 491.735 375.25C491.403 372.245 492.04 369.261 494.007 366.907C495.704 364.875 498.336 363.665 500.965 363.538C505.713 363.308 508.832 366.151 512.106 369.122C514.672 373.516 519.082 380.391 518.844 385.649L518.173 386.352L517.39 386.087L517.102 385.486C514.528 380.207 508.907 370.457 503.126 368.387C501.675 367.867 499.222 367.767 497.857 368.507C496.76 369.102 496.289 369.987 496.035 371.172C494.474 378.457 503.598 388.324 502.414 392.415Z"/>
	<path fill="#0B0388" transform="scale(0.998701 0.998701)" d="M503.88 635.677C508.297 635.836 512.333 636.824 516.11 639.18Q516.6 639.49 517.073 639.824Q517.546 640.158 518.002 640.516Q518.458 640.873 518.895 641.254Q519.333 641.634 519.75 642.036Q520.167 642.438 520.564 642.86Q520.961 643.283 521.335 643.725Q521.71 644.167 522.062 644.627Q522.414 645.087 522.742 645.565Q523.07 646.042 523.374 646.536Q523.677 647.03 523.956 647.538Q524.234 648.046 524.486 648.568Q524.738 649.089 524.964 649.623Q525.189 650.157 525.388 650.701Q525.586 651.246 525.756 651.8Q525.927 652.353 526.069 652.915Q526.211 653.477 526.325 654.045Q526.433 654.593 526.515 655.145Q526.596 655.697 526.65 656.253Q526.704 656.808 526.73 657.366Q526.757 657.924 526.756 658.482Q526.755 659.04 526.726 659.597Q526.698 660.155 526.642 660.71Q526.586 661.266 526.503 661.818Q526.42 662.37 526.31 662.917Q526.2 663.464 526.063 664.006Q525.926 664.547 525.762 665.081Q525.599 665.614 525.409 666.139Q525.22 666.664 525.005 667.179Q524.79 667.695 524.549 668.198Q524.309 668.702 524.045 669.194Q523.78 669.685 523.491 670.163Q523.203 670.641 522.891 671.104C518.639 677.405 512.639 679.8 505.477 681.045C499.759 680.823 494.763 679.704 490.152 676.063Q489.712 675.714 489.289 675.344Q488.866 674.974 488.462 674.583Q488.058 674.193 487.674 673.783Q487.29 673.373 486.926 672.944Q486.563 672.516 486.221 672.07Q485.879 671.625 485.559 671.162Q485.239 670.7 484.943 670.223Q484.646 669.746 484.374 669.255Q484.101 668.763 483.853 668.259Q483.605 667.755 483.382 667.239Q483.159 666.724 482.962 666.197Q482.764 665.671 482.593 665.136Q482.422 664.601 482.278 664.058Q482.133 663.515 482.016 662.966Q481.898 662.416 481.807 661.862Q481.717 661.307 481.654 660.749Q481.587 660.171 481.55 659.591Q481.513 659.011 481.506 658.429Q481.499 657.848 481.521 657.267Q481.543 656.686 481.595 656.106Q481.647 655.527 481.729 654.951Q481.81 654.376 481.921 653.805Q482.031 653.234 482.171 652.669Q482.311 652.105 482.479 651.548Q482.647 650.992 482.844 650.444Q483.04 649.897 483.264 649.361Q483.489 648.824 483.74 648.3Q483.991 647.775 484.269 647.264Q484.547 646.753 484.85 646.257Q485.153 645.761 485.481 645.281Q485.81 644.801 486.162 644.339Q486.515 643.876 486.89 643.432C491.359 638.184 497.239 636.242 503.88 635.677Z"/>
	<path fill="#FFFAFA" transform="scale(0.998701 0.998701)" d="M504.201 639.19C507.74 639.414 510.884 640.26 513.927 642.135Q514.341 642.388 514.742 642.661Q515.144 642.934 515.53 643.228Q515.917 643.521 516.288 643.834Q516.659 644.146 517.014 644.478Q517.369 644.809 517.707 645.157Q518.044 645.506 518.364 645.872Q518.683 646.237 518.984 646.618Q519.284 646.999 519.565 647.395Q519.846 647.791 520.106 648.201Q520.366 648.61 520.606 649.033Q520.845 649.455 521.062 649.889Q521.28 650.323 521.475 650.768Q521.67 651.212 521.842 651.666Q522.014 652.12 522.163 652.582Q522.312 653.043 522.437 653.512Q522.563 653.981 522.664 654.456Q522.765 654.931 522.841 655.41Q522.918 655.889 522.969 656.372Q523.021 656.854 523.048 657.339Q523.074 657.823 523.076 658.309Q523.077 658.794 523.054 659.279Q523.03 659.763 522.982 660.246Q522.933 660.729 522.86 661.209Q522.786 661.689 522.688 662.164Q522.59 662.639 522.468 663.109Q522.345 663.578 522.199 664.041Q522.052 664.504 521.882 664.958Q521.712 665.413 521.519 665.858Q521.325 666.303 521.109 666.737Q520.893 667.172 520.655 667.594Q520.416 668.017 520.156 668.427Q519.897 668.837 519.616 669.233C515.832 674.549 510.516 676.515 504.36 677.578C499.981 677.199 496.328 676.16 492.79 673.442C488.567 670.198 485.693 665.317 485.185 659.99Q485.139 659.509 485.117 659.026Q485.096 658.543 485.098 658.06Q485.101 657.576 485.128 657.093Q485.155 656.611 485.206 656.13Q485.257 655.649 485.332 655.172Q485.407 654.694 485.507 654.221Q485.606 653.748 485.729 653.28Q485.852 652.813 485.998 652.352Q486.144 651.891 486.313 651.438Q486.482 650.986 486.674 650.542Q486.866 650.098 487.08 649.664Q487.294 649.231 487.529 648.809Q487.765 648.386 488.021 647.977Q488.277 647.567 488.554 647.17Q488.831 646.774 489.127 646.392Q489.423 646.01 489.738 645.643C493.635 641.165 498.5 639.655 504.201 639.19Z"/>
	<path fill="#2527F8" transform="scale(0.998701 0.998701)" d="M750.119 659.575C741.935 663.731 733.877 665.912 724.685 664.36C713.563 662.481 702.588 656.4 696.007 647.108Q695.43 646.279 694.893 645.422Q694.357 644.565 693.863 643.684Q693.37 642.802 692.92 641.897Q692.47 640.992 692.064 640.066Q691.659 639.141 691.299 638.196Q690.94 637.252 690.627 636.291Q690.314 635.33 690.048 634.355Q689.783 633.38 689.565 632.393Q689.348 631.406 689.179 630.41Q689.01 629.413 688.889 628.41Q688.769 627.406 688.698 626.398Q688.627 625.39 688.605 624.38Q688.584 623.369 688.612 622.359Q688.639 621.349 688.716 620.341Q688.793 619.334 688.92 618.331Q689.046 617.328 689.221 616.333Q689.405 615.327 689.638 614.331Q689.871 613.336 690.152 612.352Q690.434 611.369 690.764 610.401Q691.094 609.433 691.471 608.483Q691.848 607.532 692.271 606.601Q692.695 605.67 693.164 604.761Q693.632 603.853 694.145 602.968Q694.658 602.083 695.214 601.225Q695.77 600.366 696.367 599.536Q696.965 598.706 697.602 597.907Q698.24 597.107 698.916 596.34Q699.592 595.573 700.305 594.84Q701.018 594.107 701.767 593.41Q702.515 592.713 703.297 592.054Q704.079 591.394 704.892 590.774Q705.705 590.154 706.548 589.575Q707.382 589.006 708.243 588.479Q709.105 587.953 709.992 587.47Q710.878 586.987 711.788 586.549Q712.698 586.111 713.628 585.72Q714.559 585.328 715.508 584.983Q716.457 584.638 717.422 584.342Q718.387 584.045 719.365 583.797Q720.344 583.548 721.334 583.349Q722.324 583.15 723.322 583.001Q724.321 582.852 725.326 582.753Q726.33 582.654 727.339 582.605Q728.347 582.557 729.357 582.559Q730.367 582.56 731.375 582.613Q732.383 582.665 733.388 582.768Q734.392 582.871 735.39 583.024Q736.388 583.176 737.377 583.379C748.069 585.552 757.995 592.074 763.963 601.245C769.98 610.491 772.118 623.242 769.762 633.992C767.402 644.763 761.779 651.983 752.654 657.888C747.587 649.317 725.997 609.509 718.387 606.299L717.978 606.881C719.354 610.844 723.491 615.26 725.952 618.775C731.481 626.672 748.094 650.774 750.119 659.575Z"/>
	<path fill="#0B0388" transform="scale(0.998701 0.998701)" d="M574.153 244.519C580.645 254.382 585.051 265.905 582.529 277.839C581.071 284.739 577.344 290.683 571.282 294.426C567.624 296.684 563.744 297.761 559.653 298.92C557.176 308.173 554.21 317.273 551.487 326.454C549.195 334.18 547.651 343.033 543.766 350.092Q543.367 350.826 542.917 351.53Q542.468 352.234 541.971 352.906Q541.474 353.578 540.932 354.213Q540.39 354.849 539.805 355.446Q539.221 356.043 538.596 356.597Q537.972 357.152 537.31 357.663Q536.649 358.173 535.954 358.636Q535.259 359.1 534.533 359.514C524.067 365.491 508.053 364.247 496.911 361.015C492.744 359.806 488.751 358.191 484.823 356.36C481.831 360.579 478.75 365.002 476.509 369.672L474.981 370.529L473.864 368.891C473.97 365.075 479.925 357.931 481.997 354.749C478.31 351.366 475.285 347.614 473.271 343.004C472.084 340.286 471.167 337.738 472.317 334.877C472.544 335.093 472.826 335.263 472.996 335.525C473.32 336.025 473.413 336.643 473.677 337.177C478.541 347.009 486.067 353.606 496.528 356.919C506.947 360.219 522.407 361.77 532.35 356.276Q533.002 355.92 533.627 355.519Q534.252 355.118 534.847 354.674Q535.442 354.23 536.004 353.745Q536.566 353.26 537.093 352.737Q537.62 352.213 538.108 351.654Q538.596 351.095 539.044 350.502Q539.491 349.91 539.896 349.287Q540.3 348.665 540.66 348.015C544.043 341.873 545.371 333.884 547.263 327.099L555.323 298.623C544.315 297.87 534.945 293.39 525.404 288.264C521.997 286.433 518.246 283.979 514.388 283.339C505.684 281.895 506.517 297.254 497.139 303.872C496.97 303.991 496.798 304.106 496.628 304.224C494.286 300.708 491.608 296.738 487.26 295.653C483.637 294.749 479.721 295.617 476.625 297.622C474.31 299.122 472.677 301.341 472.139 304.071Q472.043 304.567 471.998 305.071Q471.953 305.574 471.958 306.079Q471.964 306.585 472.02 307.087Q472.077 307.589 472.184 308.083Q472.29 308.577 472.446 309.057Q472.602 309.538 472.806 310.001Q473.01 310.463 473.259 310.903Q473.508 311.343 473.8 311.755C476.516 315.554 480.451 315.269 484.673 315.879L485.081 316.459C484.393 317.319 483.549 317.555 482.507 317.797C479.839 318.415 477.024 318.445 474.325 318.932C470.683 319.59 467.059 320.76 463.419 321.538C463.633 316.073 465.117 310.588 464.704 305.141C464.379 300.854 462.799 296.721 462.227 292.469C460.788 281.792 463.852 269.379 471.967 261.95C477.134 257.221 482.992 254.882 489.997 254.948C496.008 249.405 502.54 246.754 510.749 247.133C516.366 247.393 521.942 248.987 527.067 251.249C539.059 256.541 553.561 268.191 566.086 256.815C569.857 253.39 571.955 249.009 574.153 244.519Z"/>
	<path fill="#F4BFA4" transform="scale(0.998701 0.998701)" d="M496.628 304.224C496.798 304.106 496.97 303.991 497.139 303.872C506.517 297.254 505.684 281.895 514.388 283.339C518.246 283.979 521.997 286.433 525.404 288.264C534.945 293.39 544.315 297.87 555.323 298.623L547.263 327.099C545.371 333.884 544.043 341.873 540.66 348.015Q540.3 348.665 539.896 349.287Q539.491 349.91 539.044 350.502Q538.596 351.095 538.108 351.654Q537.62 352.213 537.093 352.737Q536.566 353.26 536.004 353.745Q535.442 354.23 534.847 354.674Q534.252 355.118 533.627 355.519Q533.002 355.92 532.35 356.276C522.407 361.77 506.947 360.219 496.528 356.919C486.067 353.606 478.541 347.009 473.677 337.177C473.413 336.643 473.32 336.025 472.996 335.525C472.826 335.263 472.544 335.093 472.317 334.877C471.167 337.738 472.084 340.286 473.271 343.004C475.285 347.614 478.31 351.366 481.997 354.749C479.925 357.931 473.97 365.075 473.864 368.891L474.981 370.529C474.317 371.639 473.545 372.715 472.586 373.591C468.92 376.938 464.144 378.064 459.285 377.78Q458.69 377.751 458.098 377.691Q457.505 377.631 456.917 377.541Q456.328 377.451 455.745 377.331Q455.161 377.211 454.585 377.061Q454.009 376.912 453.441 376.733Q452.873 376.554 452.315 376.347Q451.757 376.139 451.21 375.903Q450.663 375.667 450.129 375.404Q449.595 375.14 449.075 374.85Q448.555 374.56 448.051 374.243Q447.546 373.927 447.059 373.585Q446.571 373.243 446.102 372.876Q445.633 372.51 445.182 372.12Q444.732 371.73 444.303 371.318Q443.873 370.906 443.465 370.472Q443.057 370.038 442.672 369.584Q442.264 369.107 441.88 368.61Q441.497 368.112 441.14 367.596Q440.783 367.079 440.453 366.545Q440.124 366.011 439.822 365.46Q439.52 364.909 439.247 364.344Q438.975 363.778 438.731 363.199Q438.488 362.62 438.276 362.03Q438.063 361.439 437.881 360.838Q437.699 360.237 437.548 359.627Q437.397 359.018 437.279 358.401Q437.16 357.785 437.073 357.163Q436.986 356.541 436.932 355.915Q436.877 355.29 436.855 354.662Q436.833 354.035 436.843 353.407Q436.854 352.779 436.897 352.153Q436.94 351.526 437.015 350.903C437.544 346.286 439.754 341.485 443.384 338.506C448.139 337.832 457.649 324.661 463.419 321.538C467.059 320.76 470.683 319.59 474.325 318.932C477.024 318.445 479.839 318.415 482.507 317.797C483.549 317.555 484.393 317.319 485.081 316.459L484.673 315.879C480.451 315.269 476.516 315.554 473.8 311.755Q473.508 311.343 473.259 310.903Q473.01 310.463 472.806 310.001Q472.602 309.538 472.446 309.057Q472.29 308.577 472.184 308.083Q472.077 307.589 472.02 307.087Q471.964 306.585 471.958 306.079Q471.953 305.574 471.998 305.071Q472.043 304.567 472.139 304.071C472.677 301.341 474.31 299.122 476.625 297.622C479.721 295.617 483.637 294.749 487.26 295.653C491.608 296.738 494.286 300.708 496.628 304.224Z"/>
	<path fill="#0B0388" transform="scale(0.998701 0.998701)" d="M481.971 304.523C483.845 304.41 485.525 304.247 487.354 304.74C488.241 305.774 488.176 305.9 488.267 307.278C486.322 307.461 484.035 307.959 482.186 307.225C481.507 306.05 481.715 305.881 481.971 304.523Z"/>
	<path fill="#0B0388" transform="scale(0.998701 0.998701)" d="M542.754 309.278C543.372 309.492 543.407 309.486 544.084 309.819C545.66 310.595 547.39 311.79 547.815 313.585C548.02 314.451 547.644 314.678 547.226 315.394C545.188 314.608 542.608 313.992 541.492 311.984C541.592 310.615 541.909 310.389 542.754 309.278Z"/>
	<path fill="#0B0388" transform="scale(0.998701 0.998701)" d="M514.724 313.162C515.611 313.45 515.635 313.377 516.365 313.908C517.378 314.645 517.948 315.541 517.978 316.819C518.031 319.049 516.817 320.239 515.365 321.715L513.149 320.788C512.642 320.148 512.195 319.828 512.11 318.977C511.887 316.769 513.52 314.853 514.724 313.162Z"/>
	<path fill="#0B0388" transform="scale(0.998701 0.998701)" d="M537.026 320.727C537.971 321.083 538.647 321.491 539.493 322.028C539.955 322.772 540.34 323.361 540.327 324.279C540.296 326.438 538.743 328.296 537.442 329.865C536.36 329.518 535.697 329.012 534.812 328.311C534.408 327.54 534.003 326.861 534.051 325.953C534.165 323.818 535.626 322.179 537.026 320.727Z"/>
	<path fill="#0B0388" transform="scale(0.998701 0.998701)" d="M517.636 301.494C520.053 301.504 522.412 301.471 524.319 303.177C525.452 304.191 525.748 305.042 525.816 306.522L524.986 307.256L523.819 306.856C522.367 306.054 521.252 305.461 519.573 305.397C517.693 305.325 515.851 305.35 514.098 304.605L513.993 303.809C514.996 302.598 516.245 302.13 517.636 301.494Z"/>
	<path fill="#0B0388" transform="scale(0.998701 0.998701)" d="M519.833 344.211C517.251 344.041 514.345 343.661 512.476 341.678C511.386 340.522 510.576 338.966 510.643 337.392C513.283 337.173 515.929 340.621 518.693 341.33C518.839 341.368 518.987 341.4 519.135 341.435C519.285 341.385 519.437 341.339 519.587 341.287C521.674 340.561 523.042 339.447 524.725 338.066L525.747 337.937C525.94 339.089 525.638 340.242 524.983 341.218C523.779 343.012 521.808 343.642 519.833 344.211Z"/>
	<path fill="#2527F8" transform="scale(0.998701 0.998701)" d="M630.54 658.928C657.86 659.34 688.102 669.009 711.288 683.172C727.875 693.304 748.076 707.507 752.764 727.597C755.388 738.841 752.924 748.007 747.019 757.644L745.255 756.081C745.41 757.489 745.53 757.636 744.811 758.828L743.791 759.425L744.693 761.251C740.34 764.83 735.692 767.632 730.24 769.183Q729.241 769.459 728.229 769.685Q727.218 769.912 726.196 770.088Q725.175 770.264 724.146 770.389Q723.117 770.515 722.083 770.589Q721.049 770.664 720.013 770.687Q718.977 770.71 717.94 770.682Q716.904 770.655 715.871 770.575Q714.837 770.496 713.809 770.366Q712.78 770.236 711.76 770.056Q710.739 769.875 709.729 769.644Q708.718 769.413 707.72 769.133Q706.722 768.852 705.739 768.523Q704.757 768.194 703.791 767.816Q702.826 767.438 701.88 767.014Q700.935 766.589 700.011 766.118Q699.088 765.647 698.189 765.131C666.449 747.284 640.123 693.346 630.54 658.928Z"/>
	<path fill="#2A1D85" transform="scale(0.998701 0.998701)" d="M707.606 720.265C700.326 711.779 691.684 703.844 683.36 696.374C679.684 693.076 675.572 689.92 672.157 686.375C671.298 685.483 670.544 684.811 670.358 683.539L671.412 683.244C677.223 684.499 702.838 710.706 707.647 716.41C708.512 713.258 710.137 704.493 712.142 702.29C712.642 701.741 713.05 701.95 713.727 701.96L714.311 702.838C714.46 707.549 711.483 714.23 709.953 718.644C722.465 730.043 734.472 743.053 745.255 756.081C745.41 757.489 745.53 757.636 744.811 758.828L743.791 759.425C739.132 753.301 733.538 747.757 728.265 742.167C722.087 735.617 715.995 728.946 709.456 722.751C708.211 724.214 707.198 725.426 705.516 726.383L704.984 726.003C705.318 723.819 706.497 722.132 707.606 720.265Z"/>
	<path fill="#2527F8" transform="scale(0.998701 0.998701)" d="M848.663 354.571C844.933 358.942 841.023 360.488 835.386 360.997C823.664 362.055 811.45 361.433 799.67 361.42L730.298 361.143L675.493 360.999C666.33 361.001 656.327 361.867 647.298 360.746C644.741 360.429 641.908 359.084 639.986 357.381C637.004 354.736 636.04 350.13 635.939 346.323C635.76 339.524 635.436 314.014 636.608 308.916C637.187 306.394 638.369 304.141 640.187 302.292C642.502 299.937 644.79 299.22 648.012 298.826C653.235 298.186 658.773 298.509 664.031 298.505L692.382 298.512L796.203 298.928Q809.013 298.937 821.822 298.783C827.231 298.724 833.371 298.133 838.674 299.149C841.819 299.751 844.869 301.169 847.103 303.503C848.877 305.357 849.892 307.478 850.349 309.996C851.304 315.26 850.588 321.134 850.584 326.481C850.579 332.907 851.003 339.413 850.727 345.828C850.589 349.043 850.131 351.684 848.663 354.571Z"/>
	<path fill="white" transform="scale(0.998701 0.998701)" d="M734.554 321.514C735.949 321.447 737.449 321.432 738.817 321.761C741.318 322.362 743.561 324.294 744.709 326.569Q744.906 326.96 745.064 327.368Q745.221 327.777 745.338 328.199Q745.454 328.621 745.528 329.052Q745.602 329.484 745.633 329.92Q745.664 330.357 745.652 330.795Q745.64 331.232 745.585 331.667Q745.53 332.101 745.432 332.527Q745.334 332.954 745.194 333.369C744.13 336.565 741.974 338.051 739.04 339.391C737.861 339.382 736.646 339.358 735.487 339.116C732.929 338.582 730.504 336.715 729.212 334.465Q728.99 334.084 728.809 333.682Q728.627 333.28 728.488 332.862Q728.349 332.443 728.253 332.013Q728.157 331.582 728.106 331.144Q728.055 330.706 728.049 330.265Q728.042 329.824 728.082 329.385Q728.121 328.946 728.204 328.513Q728.288 328.08 728.416 327.658C729.383 324.455 731.707 322.939 734.554 321.514Z"/>
	<path fill="white" transform="scale(0.998701 0.998701)" d="M668.009 321.533C669.776 321.404 671.605 321.254 673.298 321.892C675.646 322.776 677.654 324.745 678.641 327.045C679.555 329.176 679.672 331.62 678.786 333.779C677.645 336.559 675.745 337.815 673.108 339.029C671.777 339.157 670.308 339.208 668.982 339C666.56 338.619 664.207 336.836 662.96 334.763Q662.743 334.398 662.563 334.013Q662.383 333.629 662.241 333.228Q662.1 332.828 661.999 332.415Q661.897 332.003 661.837 331.583Q661.777 331.162 661.758 330.738Q661.74 330.314 661.763 329.89Q661.786 329.466 661.851 329.046Q661.916 328.626 662.022 328.215C662.91 324.79 665.06 323.192 668.009 321.533Z"/>
	<path fill="white" transform="scale(0.998701 0.998701)" d="M699.944 321.527C701.112 321.46 702.313 321.445 703.48 321.535C706.095 321.737 708.657 323.14 710.273 325.206Q710.524 325.524 710.741 325.867Q710.958 326.209 711.139 326.572Q711.32 326.935 711.462 327.314Q711.605 327.693 711.708 328.085Q711.812 328.477 711.874 328.878Q711.936 329.278 711.958 329.683Q711.979 330.088 711.958 330.493Q711.938 330.897 711.876 331.298C711.355 334.74 709.188 336.925 706.483 338.874C704.833 339.045 702.896 339.197 701.268 338.878C699.005 338.436 696.835 336.91 695.547 335.014C694.248 333.104 693.904 330.687 694.446 328.459C695.225 325.26 697.269 323.258 699.944 321.527Z"/>
	<path fill="#F7B114" transform="scale(0.998701 0.998701)" d="M813.896 319.039C815.905 319.019 817.65 319.176 819.508 320.01Q820.082 320.262 820.627 320.572Q821.172 320.881 821.683 321.244Q822.194 321.607 822.665 322.02Q823.137 322.433 823.564 322.892Q823.991 323.351 824.369 323.851Q824.747 324.351 825.072 324.887Q825.397 325.422 825.667 325.988Q825.936 326.555 826.146 327.145C827.324 330.371 827.278 334.024 825.705 337.108C823.806 340.831 820.779 342.379 816.927 343.524C814.598 343.53 812.587 343.43 810.447 342.427Q809.873 342.164 809.33 341.843Q808.786 341.521 808.279 341.146Q807.772 340.77 807.307 340.343Q806.841 339.917 806.423 339.444Q806.004 338.972 805.637 338.459Q805.269 337.945 804.957 337.397Q804.645 336.848 804.391 336.27Q804.137 335.692 803.945 335.091C802.878 331.829 803.182 328.134 804.896 325.147C806.959 321.551 810.018 320.042 813.896 319.039Z"/>
	<path fill="#0B0388" transform="scale(0.998701 0.998701)" d="M577.007 425.579C596.517 424.692 616.431 425.529 635.987 425.517L759.356 425.607C768.221 425.62 778.088 424.507 784.783 431.568C787.477 434.408 788.354 437.353 788.895 441.165C790.212 450.449 789.358 465.799 789.397 475.605L789.301 553.924C792.191 554.015 794.445 553.688 796.625 555.913L796.454 556.532C792.243 558.51 749.031 557.4 740.75 557.4L599.918 557.378L548.419 557.504C540.487 557.498 532.415 557.799 524.498 557.459C523.091 557.399 521.827 557.372 520.679 556.473L520.664 555.696C521.737 554.634 522.631 554.238 524.1 554.006C527.866 553.411 532.393 553.984 536.25 554.014L561.916 554.123C562.471 527.991 562.044 501.701 562.054 475.553C562.059 464.226 561.217 452.367 562.322 441.124C562.593 438.361 563.146 435.846 564.614 433.455C567.432 428.867 571.952 426.75 577.007 425.579Z"/>
	<path fill="white" transform="scale(0.998701 0.998701)" d="M760.608 437.356C760.941 437.403 761.275 437.441 761.606 437.495C763.389 437.79 764.973 438.567 765.93 440.174C766.665 441.408 766.706 442.613 766.399 443.982C765.915 446.133 764.315 447.156 762.581 448.245C762.433 448.234 762.285 448.228 762.137 448.213C760.093 448.002 758.319 447.568 757.099 445.76C756.443 444.788 756.245 443.637 756.429 442.49C756.85 439.855 758.536 438.735 760.608 437.356Z"/>
	<path fill="white" transform="scale(0.998701 0.998701)" d="M741.942 437.44C742.678 437.456 742.691 437.442 743.514 437.536C745.403 437.754 747.333 438.577 748.497 440.131C749.367 441.294 749.572 442.526 749.331 443.948C748.962 446.128 747.195 447.424 745.478 448.548C744.654 448.568 743.802 448.599 742.983 448.495C741.281 448.279 739.721 447.169 738.849 445.707C738.14 444.518 737.969 443.13 738.3 441.797C738.849 439.583 740.137 438.632 741.942 437.44Z"/>
	<path fill="#CAC7F8" transform="scale(0.998701 0.998701)" d="M565.666 456.228C601.05 455.498 636.625 456.181 672.02 456.305C709.826 456.437 747.65 456.049 785.452 456.509C785.697 488.964 786.094 521.559 785.479 554.006L565.541 553.985L565.666 456.228Z"/>
	<path fill="#0B0388" transform="scale(0.998701 0.998701)" d="M589.05 525.606L639.17 525.54C648.099 525.518 657.463 524.892 666.319 525.702C667.036 526.917 666.747 528.081 666.714 529.469L617.391 529.489C608.193 529.522 598.721 530.104 589.573 529.363C588.796 528.295 589.072 526.912 589.05 525.606Z"/>
	<path fill="#0B0388" transform="scale(0.998701 0.998701)" d="M647.646 484.75C657.498 484.761 669.679 483.942 679.115 484.501C680.729 484.596 682.351 484.671 683.491 485.945C683.544 487.216 683.802 487.741 683.039 488.824C676.596 489.723 669.779 489.051 663.264 489.044L624.528 489.086L602.941 489.106C599.44 489.141 595.297 489.661 591.846 489.218C590.85 489.09 590.289 488.768 589.459 488.24C588.702 487.004 588.557 487.057 588.864 485.665C592.19 483.831 640.071 484.784 647.646 484.75Z"/>
	<path fill="#2527F8" transform="scale(0.998701 0.998701)" d="M748.278 484.24C748.394 484.309 748.52 484.365 748.627 484.448C750.631 485.999 758.712 501.642 759.006 504.271C759.112 505.216 759.178 504.856 758.546 505.59C755.48 505.006 752.702 501.711 750.613 499.548L750.885 518.61C752.869 518.506 754.861 518.259 756.841 518.072L748.962 528.673L746.566 531.336C744.751 527.934 742.314 524.985 740.379 521.675C739.713 520.537 739.225 520.037 739.586 518.745L741.947 518.355C744.043 516.206 742.863 503.174 742.855 499.426L735.391 504.155C738.619 497.149 743.881 490.59 748.278 484.24Z"/>
	<path fill="#0B0388" transform="scale(0.998701 0.998701)" d="M588.895 505.503L684.278 505.731C688.825 505.752 704.903 504.951 707.623 505.902C708.77 507.301 708.467 508.02 708.465 509.79L623.895 509.824C612.587 509.8 601.087 510.297 589.805 509.696C588.819 508.339 589.01 507.154 588.895 505.503Z"/>
	<path fill="#745FFB" transform="scale(0.998701 0.998701)" d="M195.524 484.51Q217.604 449.265 240.679 414.663C246.68 405.819 252.228 396.223 259.271 388.175C262.122 384.918 265.3 382.487 269.045 380.337C276.752 375.91 285.593 372.644 293.731 368.988C316.222 358.886 338.717 349.333 361.639 340.265C370.235 336.864 380.191 331.638 389.371 330.684C406.889 328.864 426.551 334.038 443.384 338.506C439.754 341.485 437.544 346.286 437.015 350.903Q436.94 351.526 436.897 352.153Q436.854 352.779 436.843 353.407Q436.833 354.035 436.855 354.662Q436.877 355.29 436.932 355.915Q436.986 356.541 437.073 357.163Q437.16 357.785 437.279 358.401Q437.397 359.018 437.548 359.627Q437.699 360.237 437.881 360.838Q438.063 361.439 438.276 362.03Q438.488 362.62 438.732 363.199Q438.975 363.778 439.247 364.344Q439.52 364.909 439.822 365.46Q440.124 366.011 440.453 366.545Q440.783 367.079 441.14 367.596Q441.497 368.112 441.88 368.61Q442.264 369.107 442.672 369.584Q443.057 370.038 443.465 370.472Q443.873 370.906 444.303 371.318Q444.732 371.73 445.182 372.12Q445.633 372.51 446.102 372.876Q446.571 373.243 447.059 373.585Q447.546 373.927 448.051 374.243Q448.555 374.56 449.075 374.85Q449.595 375.14 450.129 375.404Q450.663 375.667 451.21 375.903Q451.757 376.139 452.315 376.347Q452.873 376.554 453.441 376.733Q454.009 376.912 454.585 377.061Q455.161 377.211 455.745 377.331Q456.328 377.451 456.917 377.541Q457.505 377.631 458.098 377.691Q458.69 377.751 459.285 377.78C464.144 378.064 468.92 376.938 472.586 373.591C473.545 372.715 474.317 371.639 474.981 370.529L476.509 369.672C479.334 374.673 481.638 380.447 482.11 386.221C482.58 391.958 481.077 398.699 480.223 404.405C477.847 420.293 474.201 436.246 472.879 452.242C472.809 453.085 472.89 452.743 472.636 453.414C472.159 458.933 471.324 464.471 470.65 469.973C473.845 463.399 476.729 456.645 479.87 450.036C480.825 445.939 491.828 421.107 494.127 416.557C494.978 414.873 495.485 413.905 497.327 413.299Q513.609 417.125 529.849 421.123C530.734 422.314 530.877 422.79 530.667 424.284C529.451 432.952 524.339 446.463 521.647 455.203C515.831 474.086 510.124 495.009 502.981 513.274C500.703 519.099 495.756 532.391 490.902 536.228C485.768 542.081 479.245 545.801 471.566 547.066Q470.682 547.209 469.793 547.308Q468.904 547.406 468.01 547.461Q467.117 547.516 466.222 547.526Q465.327 547.536 464.433 547.501Q463.538 547.467 462.647 547.388Q461.756 547.309 460.869 547.187Q459.983 547.063 459.103 546.897Q458.224 546.73 457.354 546.519Q456.484 546.309 455.626 546.056Q454.768 545.802 453.923 545.507Q453.078 545.211 452.249 544.874Q451.42 544.537 450.609 544.159Q449.798 543.781 449.006 543.363Q448.215 542.945 447.445 542.488Q446.676 542.031 445.93 541.537Q445.184 541.043 444.463 540.512C425.236 526.573 422.735 495.136 419.228 473.352C416.092 473.999 399.01 497.357 396.743 501.397C396.345 502.106 396.329 502.216 396.091 502.879C395.395 508.756 395.27 515.533 392.504 520.845C381.432 527.539 372.452 529.65 359.453 528.91C337.102 527.637 302.274 515.017 287.479 497.796C284.732 494.6 282.468 490.941 280.525 487.211C279.334 484.924 278.27 481.757 276.499 479.89C276.296 479.676 276.083 479.471 275.875 479.262C263.129 502.645 256.472 535.481 252.766 561.885C251.432 571.393 250.803 581.456 248.837 590.819C248.576 589.891 248.415 588.947 248.232 588.001C248.499 587.3 248.763 586.682 248.802 585.923C248.942 583.189 250.239 578.723 249.836 576.223C247.641 579.326 246.321 584.367 244.908 587.924L244.225 587.809Q245.457 584.158 246.802 580.548C246.736 578.986 246.896 578.226 247.612 576.829C247.927 576.215 247.758 575.914 247.673 575.242C246.856 575.968 247.013 575.653 246.651 576.507C246.201 577.566 245.977 578.601 244.984 579.297C244.785 579.436 244.575 579.559 244.371 579.69C242.813 583.376 236.233 603.282 234.068 604.308C232.94 604.058 231.897 603.749 230.81 603.357C226.12 600.472 218.959 598.814 213.711 596.96C195.256 590.268 176.891 583.178 158.312 576.852C154.459 574.567 148.888 573.232 144.595 571.739Q132.438 567.581 120.397 563.1L119.405 562.485C119.105 558.231 128.233 536.972 130.689 532.425C130.352 531.57 130.172 531.644 129.415 531.195L129.351 529.804C137.099 531.741 144.32 534.385 151.698 537.387C153.9 534.025 154.865 530.091 157.954 525.868C164.002 517.599 172.376 514.782 182.076 513.309C183.922 505.313 188.609 499.768 193.316 493.288C194.796 490.816 196.518 488.795 198.424 486.65L195.524 484.51Z"/>
	<path fill="#0B0388" transform="scale(0.998701 0.998701)" d="M283.746 432.494C280.923 429.824 278.639 427.189 277.169 423.515C276.331 421.423 275.685 418.268 276.959 416.199C277.684 415.02 278.387 414.908 279.613 414.546C283.944 415.28 286.386 420.181 289.55 422.864C291.288 424.337 293.561 425.455 295.541 426.586Q292.18 427.611 288.836 428.69C287.429 430.516 285.927 431.684 283.746 432.494Z"/>
	<path fill="#0B0388" transform="scale(0.998701 0.998701)" d="M479.87 450.036C479.783 452.466 479.164 454.721 478.464 457.037C477.504 460.208 464.05 498.587 463.552 499.12C463.068 499.637 462.505 499.388 461.857 499.356C460.964 498.444 460.743 498.011 460.798 496.699C460.94 493.31 465.646 481.733 466.816 477.519C468.516 471.4 469.71 458.452 472.636 453.414C472.159 458.933 471.324 464.471 470.65 469.973C473.845 463.399 476.729 456.645 479.87 450.036Z"/>
	<path fill="#0B0388" transform="scale(0.998701 0.998701)" d="M470.87 406.765C467.649 414.736 463.227 422.279 459.012 429.753Q449.976 446.014 440.241 461.866C436.258 468.437 431.675 475.139 428.453 482.094C430.571 501.015 431.76 523.715 447.908 536.482C455.025 542.109 463.508 544.204 472.467 543.062C479.23 542.199 484.999 539.49 490.902 536.228C485.768 542.081 479.245 545.801 471.566 547.066Q470.682 547.209 469.793 547.308Q468.904 547.406 468.01 547.461Q467.117 547.516 466.222 547.526Q465.327 547.536 464.433 547.501Q463.538 547.467 462.647 547.388Q461.756 547.309 460.869 547.187Q459.983 547.063 459.103 546.897Q458.224 546.73 457.354 546.519Q456.484 546.309 455.626 546.056Q454.768 545.802 453.923 545.507Q453.078 545.211 452.249 544.874Q451.42 544.537 450.609 544.159Q449.798 543.781 449.006 543.363Q448.215 542.945 447.445 542.488Q446.676 542.031 445.93 541.537Q445.184 541.043 444.463 540.512C425.236 526.573 422.735 495.136 419.228 473.352C421.017 468.347 431.221 457.113 434.86 452.56C446.887 437.511 459.833 422.53 470.87 406.765Z"/>
	<path fill="#0B0388" transform="scale(0.998701 0.998701)" d="M312.026 422.235C318.534 419.409 325.734 417.435 332.468 415.139C356.014 407.107 380.404 399.994 401.882 387.199C399.573 390.999 389.648 396.7 385.617 399.143C376.421 409.747 329.696 433.404 314.631 442.737C310.583 445.245 306.818 447.961 303.381 451.273C299.486 455.028 295.27 461.433 290.392 463.75C289.753 465.331 289.075 466.213 289.639 467.944C293.392 479.464 320.354 492.522 330.823 496.379C348.761 502.987 378 510.37 396.091 502.879C395.395 508.756 395.27 515.533 392.504 520.845C381.432 527.539 372.452 529.65 359.453 528.91C337.102 527.637 302.274 515.017 287.479 497.796C284.732 494.6 282.468 490.941 280.525 487.211C279.334 484.924 278.27 481.757 276.499 479.89C276.296 479.676 276.083 479.471 275.875 479.262C286.177 459.711 298.038 439.375 312.026 422.235Z"/>
	<path fill="#2527F8" transform="scale(0.998701 0.998701)" d="M315.16 426.111C332.787 422.059 350.767 414.867 367.352 407.647C373.465 404.986 379.315 401.28 385.617 399.143C376.421 409.747 329.696 433.404 314.631 442.737C310.583 445.245 306.818 447.961 303.381 451.273C299.486 455.028 295.27 461.433 290.392 463.75C294.957 452.548 306.654 434.482 315.16 426.111Z"/>
	<path fill="#FFFAFA" transform="scale(0.998701 0.998701)" d="M295.541 426.586C301.109 425.559 306.368 422.873 312.026 422.235C298.038 439.375 286.177 459.711 275.875 479.262C263.129 502.645 256.472 535.481 252.766 561.885C251.432 571.393 250.803 581.456 248.837 590.819C248.576 589.891 248.415 588.947 248.232 588.001C248.499 587.3 248.763 586.682 248.802 585.923C248.942 583.189 250.239 578.723 249.836 576.223C247.641 579.326 246.321 584.367 244.908 587.924L244.225 587.809Q245.457 584.158 246.802 580.548C246.736 578.986 246.896 578.226 247.612 576.829C247.927 576.215 247.758 575.914 247.673 575.242C246.856 575.968 247.013 575.653 246.651 576.507C246.201 577.566 245.977 578.601 244.984 579.297C244.785 579.436 244.575 579.559 244.371 579.69C244.931 577.949 245.643 576.233 246.283 574.518C240.187 572.431 234.15 570.143 228.099 567.93Q221.333 565.362 214.513 562.941C214.966 562.236 215.231 561.502 215.546 560.728C216.422 559.922 216.808 558.782 217.227 557.691C220.127 550.138 217.855 543.554 214.782 536.577C214.755 534.011 217.148 529.264 218.052 526.686C219.817 528.059 221.481 529.501 223.134 531.006C224.683 529.619 228.037 529.355 230.07 528.918C228.409 524.144 226.476 520.66 222.666 517.298C224.154 511.756 226.156 506.113 230.297 501.968C235.405 498.834 276.177 442.441 283.746 432.494C285.927 431.684 287.429 430.516 288.836 428.69Q292.18 427.611 295.541 426.586Z"/>
	<path fill="#0B0388" transform="scale(0.998701 0.998701)" d="M231.32 566.621C237.591 568.541 243.755 570.805 249.938 572.991C248.921 575.516 247.962 578.085 246.802 580.548C246.736 578.986 246.896 578.226 247.612 576.829C247.927 576.215 247.758 575.914 247.673 575.242C246.856 575.968 247.013 575.653 246.651 576.507C246.201 577.566 245.977 578.601 244.984 579.297C244.785 579.436 244.575 579.559 244.371 579.69C244.931 577.949 245.643 576.233 246.283 574.518C240.187 572.431 234.15 570.143 228.099 567.93C229.553 567.746 230.151 567.424 231.32 566.621Z"/>
	<path fill="#0B0388" transform="scale(0.998701 0.998701)" d="M218.052 526.686C219.817 528.059 221.481 529.501 223.134 531.006C227.978 538.862 230.205 547.384 227.969 556.528C227.306 559.237 226.325 561.793 225.241 564.357L231.32 566.621C230.151 567.424 229.553 567.746 228.099 567.93Q221.333 565.362 214.513 562.941C214.966 562.236 215.231 561.502 215.546 560.728C216.422 559.922 216.808 558.782 217.227 557.691C220.127 550.138 217.855 543.554 214.782 536.577C214.755 534.011 217.148 529.264 218.052 526.686Z"/>
	<path fill="#745FFB" transform="scale(0.998701 0.998701)" d="M198.424 486.65C203.964 489.805 209.516 492.919 215.327 495.552C220.259 497.786 225.43 499.625 230.297 501.968C226.156 506.113 224.154 511.756 222.666 517.298C226.476 520.66 228.409 524.144 230.07 528.918C228.037 529.355 224.683 529.619 223.134 531.006C221.481 529.501 219.817 528.059 218.052 526.686C217.148 529.264 214.755 534.011 214.782 536.577C217.855 543.554 220.127 550.138 217.227 557.691C216.808 558.782 216.422 559.922 215.546 560.728C215.231 561.502 214.966 562.236 214.513 562.941Q221.333 565.362 228.099 567.93C234.15 570.143 240.187 572.431 246.283 574.518C245.643 576.233 244.931 577.949 244.371 579.69C242.813 583.376 236.233 603.282 234.068 604.308C232.94 604.058 231.897 603.749 230.81 603.357C226.12 600.472 218.959 598.814 213.711 596.96C195.256 590.268 176.891 583.178 158.312 576.852C154.459 574.567 148.888 573.232 144.595 571.739Q132.438 567.581 120.397 563.1L119.405 562.485C119.105 558.231 128.233 536.972 130.689 532.425C130.352 531.57 130.172 531.644 129.415 531.195L129.351 529.804C137.099 531.741 144.32 534.385 151.698 537.387C153.9 534.025 154.865 530.091 157.954 525.868C164.002 517.599 172.376 514.782 182.076 513.309C183.922 505.313 188.609 499.768 193.316 493.288C194.796 490.816 196.518 488.795 198.424 486.65Z"/>
	<path fill="#0B0388" transform="scale(0.998701 0.998701)" d="M182.076 513.309C180.793 517.452 179.661 521.478 179.319 525.821L178.426 526.566C175.805 525.901 172.521 526.763 170.222 528.111C165.735 530.742 162.83 535.503 161.442 540.389C171.042 543.839 181.357 546.881 190.568 551.215C199.1 553.461 207.252 557.729 215.546 560.728C215.231 561.502 214.966 562.236 214.513 562.941Q198.447 556.642 182.23 550.742C171.955 547.887 161.601 543.253 151.626 539.41C147.895 538.799 133.932 534.33 130.689 532.425C130.352 531.57 130.172 531.644 129.415 531.195L129.351 529.804C137.099 531.741 144.32 534.385 151.698 537.387C153.9 534.025 154.865 530.091 157.954 525.868C164.002 517.599 172.376 514.782 182.076 513.309Z"/>
	<path fill="#2A1D85" transform="scale(0.998701 0.998701)" d="M182.23 550.742C184.708 549.891 189.746 552.979 192.493 553.491C195.599 554.07 198.134 556.428 201.262 556.798L201.462 557.638L201.464 556.393C198.995 554.96 196.603 554.157 193.885 553.362C192.705 553.017 191.761 552.419 190.724 551.778L190.568 551.215C199.1 553.461 207.252 557.729 215.546 560.728C215.231 561.502 214.966 562.236 214.513 562.941Q198.447 556.642 182.23 550.742Z"/>
	<path fill="#FFFAFA" transform="scale(0.998701 0.998701)" d="M161.442 540.389C162.83 535.503 165.735 530.742 170.222 528.111C172.521 526.763 175.805 525.901 178.426 526.566C178.503 528.29 178.758 529.12 180.034 530.331C184.778 534.833 199.606 543.743 206.324 543.604C208.6 543.558 210.687 541.682 212.091 540.072C213.052 538.971 213.914 537.752 214.782 536.577C217.855 543.554 220.127 550.138 217.227 557.691C216.808 558.782 216.422 559.922 215.546 560.728C207.252 557.729 199.1 553.461 190.568 551.215C181.357 546.881 171.042 543.839 161.442 540.389Z"/>
	<path fill="#F4BFA4" transform="scale(0.998701 0.998701)" d="M198.424 486.65C203.964 489.805 209.516 492.919 215.327 495.552C220.259 497.786 225.43 499.625 230.297 501.968C226.156 506.113 224.154 511.756 222.666 517.298C226.476 520.66 228.409 524.144 230.07 528.918C228.037 529.355 224.683 529.619 223.134 531.006C221.481 529.501 219.817 528.059 218.052 526.686C217.148 529.264 214.755 534.011 214.782 536.577C213.914 537.752 213.052 538.971 212.091 540.072C210.687 541.682 208.6 543.558 206.324 543.604C199.606 543.743 184.778 534.833 180.034 530.331C178.758 529.12 178.503 528.29 178.426 526.566L179.319 525.821C179.661 521.478 180.793 517.452 182.076 513.309C183.922 505.313 188.609 499.768 193.316 493.288C194.796 490.816 196.518 488.795 198.424 486.65Z"/>
</svg>
